<svg width="316" height="172" viewBox="0 0 316 172" fill="none" xmlns="http://www.w3.org/2000/svg">
<path d="M0.718438 170V2.23999H26.1584C28.7184 2.23999 31.2784 2.63999 33.8384 3.44C36.5584 4.24 38.8784 5.59999 40.7984 7.51999C42.8784 9.27999 44.5584 11.6 45.8384 14.48C47.1184 17.36 47.7584 20.88 47.7584 25.04V147.2C47.7584 151.36 47.1184 154.88 45.8384 157.76C44.5584 160.64 42.8784 163.04 40.7984 164.96C38.8784 166.72 36.5584 168 33.8384 168.8C31.2784 169.6 28.7184 170 26.1584 170H0.718438ZM17.0384 15.92V156.32H24.9584C26.7184 156.32 28.2384 155.52 29.5184 153.92C30.7984 152.16 31.4384 149.12 31.4384 144.8V27.44C31.4384 23.12 30.7984 20.16 29.5184 18.56C28.2384 16.8 26.7184 15.92 24.9584 15.92H17.0384ZM86.2709 69.68V26.48C86.2709 22.16 85.6309 19.12 84.3509 17.36C83.0709 15.44 81.5509 14.48 79.7909 14.48H78.3509C76.5909 14.48 75.0709 15.36 73.7909 17.12C72.5109 18.88 71.8709 22.08 71.8709 26.72V48.08C71.8709 55.76 73.4709 62.48 76.6709 68.24C79.8709 74 83.3909 79.52 87.2309 84.8C91.0709 90.08 94.5909 95.6 97.7909 101.36C100.991 106.96 102.591 113.68 102.591 121.52V147.92C102.591 152.08 101.951 155.68 100.671 158.72C99.5509 161.6 97.9509 164 95.8709 165.92C93.7909 167.84 91.4709 169.2 88.9109 170C86.3509 170.96 83.7109 171.44 80.9909 171.44H77.6309C74.9109 171.44 72.2709 170.96 69.7109 170C67.1509 169.2 64.7509 167.84 62.5109 165.92C60.4309 164 58.7509 161.6 57.4709 158.72C56.1909 155.68 55.5509 152.08 55.5509 147.92V102.32H70.4309V145.52C70.4309 150 71.1509 153.2 72.5909 155.12C74.0309 156.88 75.7909 157.76 77.8709 157.76H79.0709C81.1509 157.76 82.8309 156.88 84.1109 155.12C85.5509 153.2 86.2709 150 86.2709 145.52V124.16C86.2709 116.48 84.6709 109.84 81.4709 104.24C78.2709 98.48 74.7509 92.96 70.9109 87.68C67.0709 82.4 63.5509 76.88 60.3509 71.12C57.1509 65.36 55.5509 58.56 55.5509 50.72V24.32C55.5509 20.16 56.1909 16.64 57.4709 13.76C58.7509 10.72 60.4309 8.23999 62.5109 6.31999C64.5909 4.4 66.9109 3.03999 69.4709 2.23999C72.0309 1.27999 74.6709 0.79999 77.3909 0.79999H79.7909C82.3509 0.79999 84.9109 1.27999 87.4709 2.23999C90.0309 3.03999 92.3509 4.4 94.4309 6.31999C96.5109 8.23999 98.1109 10.72 99.2309 13.76C100.511 16.64 101.151 20.16 101.151 24.32V69.68H86.2709ZM176.16 2.23999V170H162.72V51.92H162.48L149.28 170H137.28L124.08 51.92H123.84V170H110.16V2.23999H131.28L143.04 108.32H143.28L155.28 2.23999H176.16ZM203.663 170H187.103V147.92H203.663V170ZM235.823 171.44C233.103 171.44 230.463 170.96 227.903 170C225.343 169.2 223.023 167.84 220.943 165.92C219.023 164 217.423 161.6 216.143 158.72C214.863 155.68 214.223 152.08 214.223 147.92V24.32C214.223 20.16 214.863 16.64 216.143 13.76C217.423 10.72 219.023 8.23999 220.943 6.31999C223.023 4.4 225.343 3.03999 227.903 2.23999C230.463 1.27999 233.103 0.79999 235.823 0.79999H239.663C242.223 0.79999 244.783 1.27999 247.343 2.23999C250.063 3.03999 252.383 4.4 254.303 6.31999C256.383 8.23999 258.063 10.72 259.343 13.76C260.623 16.64 261.263 20.16 261.263 24.32V69.92H244.943V26.48C244.943 22.16 244.303 19.12 243.023 17.36C241.743 15.44 240.223 14.48 238.463 14.48H237.023C235.263 14.48 233.743 15.36 232.463 17.12C231.183 18.88 230.543 22.08 230.543 26.72V145.52C230.543 150 231.183 153.2 232.463 155.12C233.743 156.88 235.263 157.76 237.023 157.76H238.463C240.223 157.76 241.743 156.88 243.023 155.12C244.303 153.2 244.943 150 244.943 145.52V115.76H237.743V102.08H261.263V170H253.343L251.423 164.48C249.183 166.72 246.783 168.48 244.223 169.76C241.663 170.88 239.343 171.44 237.263 171.44H235.823ZM290.432 171.44C287.712 171.44 285.072 170.96 282.512 170C279.952 169.2 277.632 167.84 275.552 165.92C273.632 164 272.032 161.6 270.752 158.72C269.472 155.68 268.832 152.08 268.832 147.92V24.32C268.832 20.16 269.472 16.64 270.752 13.76C272.032 10.72 273.632 8.23999 275.552 6.31999C277.632 4.4 279.952 3.03999 282.512 2.23999C285.072 1.27999 287.712 0.79999 290.432 0.79999H294.272C296.832 0.79999 299.392 1.27999 301.952 2.23999C304.672 3.03999 306.992 4.4 308.912 6.31999C310.992 8.23999 312.672 10.72 313.952 13.76C315.232 16.64 315.872 20.16 315.872 24.32V69.92H299.552V26.48C299.552 22.16 298.912 19.12 297.632 17.36C296.352 15.44 294.832 14.48 293.072 14.48H291.632C289.872 14.48 288.352 15.36 287.072 17.12C285.792 18.88 285.152 22.08 285.152 26.72V145.52C285.152 150 285.792 153.2 287.072 155.12C288.352 156.88 289.872 157.76 291.632 157.76H293.072C294.832 157.76 296.352 156.88 297.632 155.12C298.912 153.2 299.552 150 299.552 145.52V115.76H292.352V102.08H315.872V170H307.952L306.032 164.48C303.792 166.72 301.392 168.48 298.832 169.76C296.272 170.88 293.952 171.44 291.872 171.44H290.432Z" fill="#7B5EB4"/>
</svg>
