<svg width="34" height="34" viewBox="0 0 34 34" fill="none" xmlns="http://www.w3.org/2000/svg">
<path d="M24.2996 21.3836H22.7639L22.2196 20.8588C24.1246 18.6427 25.2716 15.7656 25.2716 12.6358C25.2716 5.65695 19.6146 0 12.6358 0C5.65695 0 0 5.65695 0 12.6358C0 19.6146 5.65695 25.2716 12.6358 25.2716C15.7656 25.2716 18.6427 24.1246 20.8588 22.2196L21.3836 22.7639V24.2996L31.1035 34L34 31.1035L24.2996 21.3836ZM12.6358 21.3836C7.79531 21.3836 3.88794 17.4763 3.88794 12.6358C3.88794 7.79531 7.79531 3.88794 12.6358 3.88794C17.4763 3.88794 21.3836 7.79531 21.3836 12.6358C21.3836 17.4763 17.4763 21.3836 12.6358 21.3836Z" fill="#7B5EB4"/>
</svg>
