<svg width="32" height="32" viewBox="0 0 32 32" fill="none" xmlns="http://www.w3.org/2000/svg">
<g clip-path="url(#clip0_369_5)">
<path d="M28.7378 5.33334C28.6166 5.32085 28.4945 5.32085 28.3733 5.33334H3.48444C3.32493 5.3358 3.16647 5.35971 3.01333 5.40445L15.8578 18.1956L28.7378 5.33334Z" fill="black"/>
<path d="M30.0533 6.56885L17.1111 19.4577C16.778 19.7888 16.3274 19.9747 15.8578 19.9747C15.3881 19.9747 14.9375 19.7888 14.6044 19.4577L1.77778 6.66663C1.73835 6.81155 1.71744 6.96089 1.71556 7.11107V24.8888C1.71556 25.3603 1.90286 25.8125 2.23626 26.1459C2.56965 26.4793 3.02184 26.6666 3.49333 26.6666H28.3822C28.8537 26.6666 29.3059 26.4793 29.6393 26.1459C29.9727 25.8125 30.16 25.3603 30.16 24.8888V7.11107C30.1529 6.92587 30.1169 6.74292 30.0533 6.56885ZM4.71111 24.8888H3.47556V23.6177L9.93778 17.2088L11.1911 18.4622L4.71111 24.8888ZM28.3644 24.8888H27.12L20.64 18.4622L21.8933 17.2088L28.3556 23.6177L28.3644 24.8888Z" fill="black"/>
</g>
<defs>
<clipPath id="clip0_369_5">
<rect width="32" height="32" fill="white"/>
</clipPath>
</defs>
</svg>
