<svg width="32" height="36" viewBox="0 0 32 36" fill="none" xmlns="http://www.w3.org/2000/svg">
<path d="M31.5 18.7392C31.5 26.8779 24.5825 33.5146 16 33.5146C7.41749 33.5146 0.5 26.8779 0.5 18.7392C0.5 10.6006 7.41749 3.96387 16 3.96387C24.5825 3.96387 31.5 10.6006 31.5 18.7392Z" fill="white" stroke="#7B5EB4"/>
<path d="M29.7854 18.7392C29.7854 25.9976 23.6201 31.8935 15.9999 31.8935C8.3798 31.8935 2.21445 25.9976 2.21445 18.7392C2.21445 11.4807 8.3798 5.58481 15.9999 5.58481C23.6201 5.58481 29.7854 11.4807 29.7854 18.7392Z" fill="white" stroke="#7B5EB4" stroke-width="0.3"/>
<path d="M7.22563 4.94203L5.67725 1H14.9676V28.1014L28.9031 28.5942L26.8385 35H5.67725L7.22563 31.5507V4.94203Z" fill="white" stroke="#7B5EB4" stroke-width="0.3"/>
</svg>
